<svg width="22" height="39" viewBox="0 0 22 39" fill="none" xmlns="http://www.w3.org/2000/svg">
<path d="M10.8 27.6C8.25393 27.6 5.81214 26.5886 4.01179 24.7882C2.21144 22.9879 1.20001 20.5461 1.20001 18V10.8C1.20001 10.1635 1.45287 9.55306 1.90296 9.10297C2.35304 8.65288 2.96349 8.40002 3.60001 8.40002H18C18.6365 8.40002 19.247 8.65288 19.6971 9.10297C20.1472 9.55306 20.4 10.1635 20.4 10.8V18C20.4 20.5461 19.3886 22.9879 17.5882 24.7882C15.7879 26.5886 13.3461 27.6 10.8 27.6Z" fill="white" stroke="white" stroke-width="2.4" stroke-linecap="round" stroke-linejoin="round"/>
<path d="M6 26.3152V29.9952C6 30.6317 6.25286 31.2422 6.70294 31.6923C7.15303 32.1424 7.76348 32.3952 8.4 32.3952H13.2C13.8365 32.3952 14.447 32.1424 14.8971 31.6923C15.3471 31.2422 15.6 30.6317 15.6 29.9952V26.3152M6 8.40001V1.20001M15.6 8.40001V1.20001M10.8 32.4V37.2" stroke="white" stroke-width="2.4" stroke-linecap="round" stroke-linejoin="round"/>
</svg>
