<svg width="48" height="48" viewBox="0 0 48 48" fill="none" xmlns="http://www.w3.org/2000/svg">
<rect width="48" height="48" rx="24" fill="black"/>
<path d="M24 32.4C21.4539 32.4 19.0121 31.3886 17.2118 29.5882C15.4115 27.7879 14.4 25.3461 14.4 22.8V15.6C14.4 14.9635 14.6529 14.353 15.103 13.903C15.5531 13.4529 16.1635 13.2 16.8 13.2H31.2C31.8365 13.2 32.447 13.4529 32.8971 13.903C33.3472 14.353 33.6 14.9635 33.6 15.6V22.8C33.6 25.3461 32.5886 27.7879 30.7883 29.5882C28.9879 31.3886 26.5461 32.4 24 32.4Z" fill="white" stroke="white" stroke-width="2.4" stroke-linecap="round" stroke-linejoin="round"/>
<path d="M19.2 31.1152V34.7952C19.2 35.4317 19.4529 36.0422 19.903 36.4923C20.353 36.9423 20.9635 37.1952 21.6 37.1952H26.4C27.0365 37.1952 27.647 36.9423 28.0971 36.4923C28.5472 36.0422 28.8 35.4317 28.8 34.7952V31.1152M19.2 13.2V6M28.8 13.2V6M24 37.2V42" stroke="white" stroke-width="2.4" stroke-linecap="round" stroke-linejoin="round"/>
</svg>
